<svg xmlns="http://www.w3.org/2000/svg" viewBox="-27 -4 475 160" width="475" height="160" role="img" aria-label="jaranow wordmark" fill="none" stroke="#F2F5FB" stroke-width="14" stroke-linecap="round" stroke-linejoin="round">
  <g transform="translate(0,0)"><path d="M21 53 V108 A14 14 0 0 1 7 122"/><path d="M14 23 H28 V37 H14 Z" fill="#F2F5FB" stroke="none"/></g><g transform="translate(40,0)"><path d="M47 53 V100 M47 67 A14 14 0 0 0 33 53 H21 A14 14 0 0 0 7 67 V79 A14 14 0 0 0 21 93 H33 A14 14 0 0 0 47 79"/></g><g transform="translate(106,0)"><path d="M7 100 V67 A14 14 0 0 1 21 53 H30"/></g><g transform="translate(155,0)"><path d="M47 53 V100 M47 67 A14 14 0 0 0 33 53 H21 A14 14 0 0 0 7 67 V79 A14 14 0 0 0 21 93 H33 A14 14 0 0 0 47 79"/></g><g transform="translate(221,0)"><path d="M7 100 V67 A14 14 0 0 1 21 53 H33 A14 14 0 0 1 47 67 V100"/></g><g transform="translate(287,0)"><path d="M7 67 A14 14 0 0 1 21 53 H33 A14 14 0 0 1 47 67 V79 A14 14 0 0 1 33 93 H21 A14 14 0 0 1 7 79 Z"/></g><g transform="translate(353,0)"><path d="M7 53 L20 100 L34 56 L48 100 L61 53"/></g>
</svg>
