<svg xmlns="http://www.w3.org/2000/svg" viewBox="-27 -4 625.7 207" width="625.7" height="207" role="img" aria-label="carwash by Jaranow" fill="none" stroke="#0E1526" stroke-width="14" stroke-linecap="round" stroke-linejoin="round">
  <g transform="translate(-10.400000000000002,34.5) scale(1.3)"><path fill-rule="evenodd" fill="#0E1526" stroke="none" d="M50 8 L81 44 A34 34 0 1 1 19 44 Z M50 51 A13 13 0 1 1 50 77 A13 13 0 1 1 50 51 Z"/></g><g transform="translate(150.7,0)"><g transform="translate(0,0)"><path d="M21 53 V108 A14 14 0 0 1 7 122"/><path d="M14 23 H28 V37 H14 Z" fill="#0E1526" stroke="none"/></g><g transform="translate(40,0)"><path d="M47 53 V100 M47 67 A14 14 0 0 0 33 53 H21 A14 14 0 0 0 7 67 V79 A14 14 0 0 0 21 93 H33 A14 14 0 0 0 47 79"/></g><g transform="translate(106,0)"><path d="M7 100 V67 A14 14 0 0 1 21 53 H30"/></g><g transform="translate(155,0)"><path d="M47 53 V100 M47 67 A14 14 0 0 0 33 53 H21 A14 14 0 0 0 7 67 V79 A14 14 0 0 0 21 93 H33 A14 14 0 0 0 47 79"/></g><g transform="translate(221,0)"><path d="M7 100 V67 A14 14 0 0 1 21 53 H33 A14 14 0 0 1 47 67 V100"/></g><g transform="translate(287,0)"><path d="M7 67 A14 14 0 0 1 21 53 H33 A14 14 0 0 1 47 67 V79 A14 14 0 0 1 33 93 H21 A14 14 0 0 1 7 79 Z"/></g><g transform="translate(353,0)"><path d="M7 53 L20 100 L34 56 L48 100 L61 53"/></g></g><g transform="translate(150.7,136) scale(0.4)" stroke="#0E1526"><g transform="translate(0,0)"><path d="M47 62 A14 14 0 0 0 33 53 H21 A14 14 0 0 0 7 67 V79 A14 14 0 0 0 21 93 H33 A14 14 0 0 0 47 84"/></g><g transform="translate(100,0)"><path d="M47 53 V100 M47 67 A14 14 0 0 0 33 53 H21 A14 14 0 0 0 7 67 V79 A14 14 0 0 0 21 93 H33 A14 14 0 0 0 47 79"/></g><g transform="translate(200,0)"><path d="M7 100 V67 A14 14 0 0 1 21 53 H30"/></g><g transform="translate(283,0)"><path d="M7 53 L20 100 L34 56 L48 100 L61 53"/></g><g transform="translate(397,0)"><path d="M47 53 V100 M47 67 A14 14 0 0 0 33 53 H21 A14 14 0 0 0 7 67 V79 A14 14 0 0 0 21 93 H33 A14 14 0 0 0 47 79"/></g><g transform="translate(497,0)"><path d="M47 60 C47 49 7 48 7 63 C7 77 47 74 47 88 C47 101 9 102 9 89"/></g><g transform="translate(597,0)"><path d="M7 100 V16 M7 67 A14 14 0 0 1 21 53 H33 A14 14 0 0 1 47 67 V100"/></g></g>
</svg>
